
<svg width="195" height="22" xmlns="http://www.w3.org/2000/svg"><path d="M.8 1.4C.6 1 .9.7 1.3.7h3.8c.2 0 .4.2.5.3l4.7 10.5h.2L15.2 1c.1-.1.3-.3.5-.3h3.8c.4 0 .7.4.5.7l-9 19.4c-.1.2-.3.3-.5.3h-.3c-.2 0-.4-.1-.5-.3L.8 1.4zm25.7-.2c0-.3.3-.5.5-.5h3.5c.3 0 .5.3.5.5v19c0 .3-.3.5-.5.5H27c-.3 0-.5-.3-.5-.5v-19zm10.9.2c-.2-.4.1-.7.5-.7h3.8c.2 0 .4.2.5.3l4.7 10.5h.2L51.8 1c.1-.1.3-.3.5-.3h3.8c.4 0 .7.4.5.7l-9 19.4c-.1.2-.3.3-.5.3h-.3c-.2 0-.4-.1-.5-.3L37.4 1.4zM58.9 20l9-19.4c.1-.2.3-.3.5-.3h.3c.2 0 .4.1.5.3l9 19.4c.2.4-.1.7-.5.7h-3.2c-.5 0-.7-.2-1-.7l-1-2.3h-7.8l-1 2.3c-.1.3-.5.7-1 .7h-3.2c-.5 0-.7-.3-.6-.7zm11.9-6.2l-2.2-4.7-2.2 4.7h4.4zM87.7 3.3H83c-.3 0-.5-.3-.5-.5V1.2c0-.3.2-.5.5-.5h12.4c.3 0 .5.3.5.5v1.6c0 .3-.2.5-.5.5h-4.7v16.9c0 .3-.3.5-.5.5h-1.9c-.3 0-.5-.3-.5-.5V3.3h-.1zm15.4-2.1c0-.3.3-.5.5-.5h1.9c.3 0 .5.3.5.5v19c0 .3-.3.5-.5.5h-1.9c-.3 0-.5-.3-.5-.5v-19zm21.6-.9c2.9 0 5 1 7 2.7.3.2.3.6 0 .8l-1.3 1.3c-.2.3-.5.3-.7 0-1.4-1.2-3.2-1.9-5-1.9-4.1 0-7.2 3.4-7.2 7.5 0 4 3.1 7.4 7.2 7.4 2.1 0 3.6-.8 4.9-1.9.3-.2.5-.2.7 0l1.3 1.3c.2.2.2.6 0 .8-2 1.9-4.4 2.8-7 2.8-5.8 0-10.4-4.6-10.4-10.3C114.3 5 118.9.3 124.7.3zm15.2 1c0-.4.3-.7.7-.7h1.7c.4 0 .7.3.7.7v8l8.1-8.4c.1-.1.3-.3.5-.3h2.2c.5 0 .8.6.4 1l-8.3 8.5 8.8 9.7c.2.3.1.9-.5.9h-2.3c-.3 0-.5-.1-.5-.2l-8.4-9.4V20c0 .4-.3.7-.7.7h-1.7c-.4 0-.7-.3-.7-.7V1.3zm22.2-.1c0-.3.2-.5.5-.5h11.5c.3 0 .5.3.5.5v1.6c0 .3-.2.5-.5.5H165v5.9h7.7c.3 0 .5.3.5.5v1.6c0 .3-.3.5-.5.5H165V18h9.1c.3 0 .5.3.5.5v1.6c0 .3-.2.5-.5.5h-11.5c-.3 0-.5-.3-.5-.5V1.2zm23.8 2.1h-4.7c-.3 0-.5-.3-.5-.5V1.2c0-.3.2-.5.5-.5h12.4c.3 0 .5.3.5.5v1.6c0 .3-.2.5-.5.5h-4.7v16.9c0 .3-.3.5-.5.5h-1.9c-.3 0-.5-.3-.5-.5V3.3h-.1z" fill="#fff"/></svg>